<svg xmlns="http://www.w3.org/2000/svg" xmlns:xlink="http://www.w3.org/1999/xlink" xmlns:inkscape="http://www.inkscape.org/namespaces/inkscape" version="1.1" width="900" height="900" viewBox="0 0 900 900">
<defs>
<clipPath id="clip_0">
<path transform="matrix(1,0,0,-1,0,900)" d="M0 900H900V0H0Z"/>
</clipPath>
</defs>
<g inkscape:groupmode="layer" inkscape:label="Layer 1">
<g clip-path="url(#clip_0)">
<path transform="matrix(1,0,0,-1,249.9375,482.5947)" d="M0 0C0 0-1.249-7.096-9.225-10.644-9.225-10.644-3.009-15.781-3.009-16.859-3.009-17.91 8.686-27.333 9.764-29.803 10.843-32.301 34.771-54.639 46.124-50.211L41.157-39.198 41.866-26.624C41.866-26.624 12.063-24.836 0 0" fill="#c32a2a"/>
<path transform="matrix(1,0,0,-1,247.4683,472.6318)" d="M0 0C0 10.275-8.316 18.592-18.591 18.592-28.867 18.592-37.183 10.275-37.183 0-37.183-10.275-28.867-18.62-18.591-18.62-8.316-18.62 0-10.275 0 0" fill="#c32a2a"/>
<path transform="matrix(1,0,0,-1,459.5244,193.13568)" d="M0 0-7.323-13.596-22.537-16.349-11.865-27.532-13.937-42.831 0-36.132 13.908-42.831 11.864-27.532 22.509-16.349 7.323-13.596Z" fill="#c32a2a"/>
<path transform="matrix(1,0,0,-1,390.9204,201.8208)" d="M0 0-5.024-9.31-15.413-11.212-8.118-18.847-9.537-29.349 0-24.751 9.537-29.349 8.118-18.847 15.441-11.212 5.024-9.31Z" fill="#c32a2a"/>
<path transform="matrix(1,0,0,-1,529.3486,211.13092)" d="M0 0-5.023 9.31-10.048 0-20.437-1.902-13.142-9.537-14.561-20.039-5.023-15.441 4.513-20.039 3.094-9.537 10.417-1.902Z" fill="#c32a2a"/>
<path transform="matrix(1,0,0,-1,238.1865,698.4258)" d="M0 0H-9.31V-13.993H1.164C5.705-13.993 9.055-11.269 9.055-7.011 9.055-2.072 5.563 0 0 0" fill="#c32a2a"/>
<path transform="matrix(1,0,0,-1,503.3486,698.4258)" d="M0 0H-11.58V-13.312H-.34C3.917-13.312 8.146-12.205 8.146-6.67 8.146-1.391 4.939 0 0 0" fill="#c32a2a"/>
<path transform="matrix(1,0,0,-1,560.9395,697.6875)" d="M0 0C-9.168 0-13.709-6.728-13.709-16.179-13.709-25.631-10.559-33.578 0-33.578 10.219-33.578 13.71-25.631 13.71-16.179 13.71-6.728 9.197 0 0 0" fill="#c32a2a"/>
<path transform="matrix(1,0,0,-1,688.6104,739.1563)" d="M0 0H-26.936C-30.909 0-33.521 1.561-33.521 6.585V42.774C-33.521 47.77-30.909 49.359-26.936 49.359H-.539C2.754 49.359 5.138 48.395 5.138 44.817 5.138 41.27 2.754 40.305-.539 40.305H-22.281V29.604H-3.207C-.255 29.604 2.072 28.781 2.072 25.29 2.072 21.799-.255 20.976-3.207 20.976H-22.281V9.055H0C3.293 9.055 5.705 8.089 5.705 4.513 5.705 .965 3.293 0 0 0M-69.171-1.164C-83.448-1.164-89.807 5.96-89.807 11.297-89.807 14.05-87.819 15.979-85.095 15.979-78.992 15.979-80.553 7.067-69.171 7.067-63.353 7.067-60.117 10.274-60.117 13.567-60.117 15.554-61.082 17.739-64.914 18.705L-77.602 21.94C-87.819 24.552-89.664 30.172-89.664 35.451-89.664 46.407-79.531 50.523-69.994 50.523-61.224 50.523-50.863 45.584-50.863 38.999-50.863 36.189-53.276 34.543-56.001 34.543-61.224 34.543-60.259 41.895-70.761 41.895-75.955 41.895-78.851 39.481-78.851 36.047-78.851 32.642-74.734 31.534-71.158 30.711L-61.763 28.582C-51.488 26.255-48.877 20.152-48.877 14.391-48.877 5.478-55.604-1.164-69.171-1.164M-257.839 325.421C-258.18 323.917-258.123 324.569-258.038 325.336ZM-113.648 85.918C-110.896 93.809-106.524 108.738-108.512 118.531-108.512 118.531-103.913 166.443-112.769 214.326-112.769 214.326-113.138 222.842-112.088 223.211-111.86 223.268-111.35 224.317-110.697 225.907-103.715 239.872-73.116 305.496-93.354 347.788-93.609 348.412-93.809 348.81-93.809 348.81L-91.141 350.569C-91.141 350.569-66.787 343.473-46.209 360.986-46.209 360.986-26.567 378.953-25.857 384.403-25.857 384.403-23.019 386.305-23.019 389.143-23.019 391.981-25.375 394.82-27.276 394.11-27.276 394.11-29.179 412.077-40.986 426.269-40.986 426.269-69.37 450.623-70.563 456.782-70.563 456.782-84.754 457.009-88.075 459.62-88.075 459.62-99.883 462.231-100.592 461.749-101.302 461.267-110.526 461.522-111.719 458.201-112.911 454.88-109.59 451.332-111.236 449.203-112.911 447.075-110.782 441.88-109.59 441.653-108.397 441.397-111.236 434.784-108.397 433.365-105.56 431.946-102.721 432.173-100.848 436.431-98.946 440.688-86.883 433.848-82.853 443.072-82.853 443.072-70.563 434.075-70.079 428.171-70.079 428.171-73.173 403.335-63.239 394.337-63.239 394.337-89.494 404.981-94.915 386.532-94.915 386.532-102.806 389.768-107.943 389.398-119.837 390.846-127.585 388.178-132.581 384.346-136.385 382.189-140.018 378.158-141.323 370.75-141.465 370.125-141.521 369.729-141.521 369.729-141.521 369.729-157.133 373.986-158.552 370.92-158.552 370.92-164.938 386.532-167.55 388.433-167.55 388.433-161.617 391.981-160.908 395.047-160.908 395.047-156.764 406.031-161.021 412.787-161.021 412.787-159.603 422.38-167.067 426.638H-167.181C-170.303 431.463-174.816 436.345-178.193 437.14-184.098 438.559-186.709 442.817-188.128 443.072-189.547 443.299-195.934 442.817-196.87 442.107-197.665 441.483-205.896 438.417-208.593 435.777L-208.934 435.834C-208.934 435.834-214.61 432.315-218.158 413.127-218.158 413.127-217.335 398.141-212.964 394.82-212.708 394.564-212.623 394.11-212.681 393.486-212.681 393.457-212.651 393.457-212.681 393.429-211.771 389.796-208.849 380.202-202.547 379.066-200.384 378.682-198.28 376.651-196.485 373.987-195.151 371.306-192.112 364.246-191.967 355.905-223.749 351.854-231.877 333.548-231.877 333.548-231.877 333.548-231.781 333.53-231.672 333.51-231.754 333.211-231.836 332.913-231.867 332.602L-233.77 330.701C-233.77 330.701-236.607 337.796-247.479 334.958-247.479 334.958-256.25 333.312-257.413 327.408-257.499 327.039-257.555 326.727-257.612 326.415-260.081 337.144-269.221 356.785-269.221 356.785-271.832 361.469-267.121 374.412-267.121 374.412-259.457 369.501-253.837 380.741-250.26 378.499-246.712 376.228-244.47 377.505-243.051 380.003-241.632 382.501-247.082 386.021-246.315 386.815-245.549 387.61-246.571 392.577-248.898 393.344-251.197 394.11-250.488 398.453-253.07 400.326-255.625 402.228-262.437 397.374-263.204 397.403-263.998 397.403-271.548 389.483-271.548 389.483-272.741 385.851-283.271 378.527-283.271 378.527-281.653 374.724-285.996 356.53-288.522 346.823-302.033 319.546-285.57 311.797-285.57 311.797-286.648 303.055-279.893 302.799-279.893 302.799-252.588 277.623-214.383 301.862-214.383 301.862-214.326 302.004-214.213 301.976-214.071 301.891-214.27 301.862-214.383 301.862-214.383 301.862-214.383 301.862-214.383 301.834-214.354 301.806-198.034 274.586-192.244 249.409-190.257 233.344V233.259C-190.257 232.351-189.916 229.796-189.576 226.815-189.036 219.663-189.292 215.519-189.292 215.519-190.257 211.034-193.322 205.584-193.805 203.683-194.259 201.81-197.58 186.652-202.547 182.65-207.486 178.648-233.372 100.961-227.865 85.918H-268.88C-265.928 89.21-264.083 93.553-264.083 98.35-264.083 108.625-272.428 116.941-282.703 116.941-292.978 116.941-301.294 108.625-301.294 98.35-301.294 93.553-299.478 89.21-296.498 85.918H-319.801C-319.659 85.975-319.489 86.06-319.404 86.145-314.181 90.402-317.02 100.791-317.02 100.791-301.891 124.208-302.771 136.271-305.439 151.541-308.107 166.783-326.557 178.137-326.557 178.137L-338.421 193.237C-353.521 208.849-325.478 249.466-326.386 255.853-327.266 262.238-324.229 266.326-324.229 266.326L-323.179 264.906C-325.847 258.151-314.493 241.121-314.493 241.121-308.277 234.564-297.264 203.683-297.264 203.683-298.684 200.504-290.537 140.728-288.948 137.179-287.33 133.631-289.828 119.78-289.828 119.78-280.063 124.577-272.627 118.729-272.627 118.729-273.507 119.78-276.345 138.599-276.885 139.818-277.396 141.067-276.175 163.235-276.175 163.235-276.175 163.235-273.876 191.449-277.396 218.584-280.972 245.747-298.229 283.157-300.841 285.542-303.423 287.897-306.858 306.46-309.356 310.945-311.825 315.458-328.259 319.46-333.936 319.83-339.613 320.198-338.676 323.86-339.613 326.103-340.578 328.345-339.982 347.163-339.982 347.163-330.388 350.342-326.017 365.84-326.017 365.84-326.017 365.84-326.84 379.208-322.696 377.307-318.552 375.405-321.05 367.486-321.05 367.486-326.84 350.683-316.452 342.906-316.452 342.906-316.452 351.875-308.391 355.423-308.76 358.857-309.1 362.292-301.067 386.645-299.535 401.093-298.002 415.512-311.229 420.706-321.76 422.011-332.29 423.317-339.613 411.595-339.613 411.595L-340.805 411.963C-361.383 419.883-375.802 402.853-375.802 402.853-392.833 402.966-390.931 385.339-390.25 383.324-389.512 381.337-389.171 372.822-389.171 372.822-389.171 372.822-387.752 374.355-386.815 376.484-385.85 378.612-383.268 376.824-383.268 376.824-386.56 373.986-383.154 365.471-383.012 364.647-382.898 363.825-383.012 360.617-384.573 359.567-386.106 358.517-383.977 352.584-383.977 352.584-384.8 351.988-375.802 326.557-371.318 326.557-366.805 326.557-364.449 332.006-364.449 332.006L-364.108 330.133C-363.285 321.362-364.818 315.572-369.303 312.251-373.787 308.958-387.979 307.993-387.979 307.993-399.815 303.736-394.139 287.187-392.719 284.577-391.3 281.994-394.139 272.996-394.139 272.996L-402.426 264.48C-409.75 254.773-399.588 242.001-396.494 240.127-393.429 238.226-393.202 228.291-392.237 226.162-391.3 224.034-391.527 216.937-391.527 216.937-391.783 213.163-384.204 204.647-384.204 204.647-388.462 199.907-378.754 169.395-378.044 167.976-377.335 166.557-373.078 146.915-373.078 146.915L-377.335 146.461C-387.383 132.779-389.937 104.141-390.449 95.795L-589.334 294.681-239.475 644.569 110.414 294.681-98.378 85.918ZM-127.671-1.164C-145.354-1.164-152.62 10.359-152.62 25.29-152.62 39.766-143.85 50.523-127.671 50.523-111.491 50.523-102.721 39.766-102.721 25.29-102.721 11.382-110.811-1.164-127.671-1.164M-188.213 85.918C-182.31 95.256-166.868 120.574-166.018 130.594-166.018 130.594-163.86 123.867-158.921 122.448-158.921 122.448-157.189 97.187-154.267 85.918ZM-167.578 13.624C-167.578 7.947-166.074 5.818-166.074 3.491-166.074 .88-168.742-.908-171.354-.908-177.513-.908-177.995 5.052-177.995 7.067-177.995 15.696-179.585 19.187-185.744 19.187H-196.842V4.711C-196.842 1.362-199.056-.908-202.462-.908-205.896-.908-208.082 1.362-208.082 4.711V42.774C-208.082 47.77-205.499 49.359-201.525 49.359H-182.792C-169.423 49.359-165.875 42.008-165.875 35.649-165.875 30.285-169.025 25.006-174.362 23.785V23.644C-168.6 22.82-167.578 18.648-167.578 13.624M-231.328 29.604C-228.405 29.604-226.077 28.781-226.077 25.29-226.077 21.799-228.405 20.976-231.328 20.976H-250.402V9.055H-228.121C-224.828 9.055-222.416 8.089-222.416 4.513-222.416 .965-224.828 0-228.121 0H-255.057C-259.031 0-261.643 1.561-261.643 6.585V42.774C-261.643 47.77-259.031 49.359-255.057 49.359H-228.66C-225.368 49.359-222.983 48.395-222.983 44.817-222.983 41.27-225.368 40.305-228.66 40.305H-250.402V29.604ZM-239.475-55.207-264.197-30.456H-214.752ZM-279.013 4.598C-279.013 1.788-280.376-.908-284.009-.908-287.642-.908-289.004 1.788-289.004 4.598V35.167H-289.146L-299.648 2.384C-300.386 .057-302.118-.908-304.445-.908-306.773-.908-308.476 .057-309.242 2.384L-319.716 35.167H-319.858V4.598C-319.858 1.788-321.22-.908-324.853-.908-328.486-.908-329.877 1.788-329.877 4.598V44.704C-329.877 49.218-326.783 50.239-323.775 50.239H-320.482C-316.991 50.239-315.345 48.877-314.181 45.102L-304.36 13.425H-304.218L-294.568 45.102C-293.404 48.877-291.758 50.239-288.267 50.239H-285.087C-282.079 50.239-279.013 49.218-279.013 44.704ZM-346.936 4.711C-346.936 1.362-349.15-.908-352.556-.908-355.991-.908-358.176 1.362-358.176 4.711V44.619C-358.176 47.997-355.991 50.239-352.556 50.239-349.15 50.239-346.936 47.997-346.936 44.619ZM-375.348 13.624C-375.348 7.947-373.815 5.818-373.815 3.491-373.815 .88-376.512-.908-379.095-.908-385.283-.908-385.765 5.052-385.765 7.067-385.765 15.696-387.326 19.187-393.514 19.187H-404.612V4.711C-404.612 1.362-406.797-.908-410.232-.908-413.667-.908-415.852 1.362-415.852 4.711V42.774C-415.852 47.77-413.241 49.359-409.267 49.359H-390.562C-377.193 49.359-373.617 42.008-373.617 35.649-373.617 30.285-376.768 25.006-382.132 23.785V23.644C-376.37 22.82-375.348 18.648-375.348 13.624M-447.273 18.08H-459.733V4.711C-459.733 1.362-461.948-.908-465.354-.908-468.788-.908-470.974 1.362-470.974 4.711V42.774C-470.974 47.77-468.391 49.359-464.389 49.359H-447.188C-437.736 49.359-430.129 44.704-430.129 33.72-430.129 24.75-436.374 18.08-447.273 18.08M48.935 86.145V85.918H-46.294L161.959 294.17-238.027 694.156-638.013 294.17-429.76 85.918H-500.862V86.145L-501.061 85.918-547.127 27.73-501.061-30.456-500.862-30.684V-30.456H-313.386L-238.027-105.844-162.668-30.456H48.935V-30.684L49.104-30.456 95.2 27.73 49.104 85.918Z" fill="#c32a2a"/>
<path transform="matrix(1,0,0,-1,295.5791,698.4258)" d="M0 0H-11.581V-13.312H-.341C3.917-13.312 8.174-12.205 8.174-6.67 8.174-1.391 4.938 0 0 0" fill="#c32a2a"/>
</g>
</g>
</svg>
